<?xml version="1.0" encoding="UTF-8" standalone="no"?>
<svg width="23px" height="23px" viewBox="0 0 23 23" version="1.1" xmlns="http://www.w3.org/2000/svg" xmlns:xlink="http://www.w3.org/1999/xlink" xmlns:sketch="http://www.bohemiancoding.com/sketch/ns">
    <!-- Generator: Sketch 3.0.4 (8054) - http://www.bohemiancoding.com/sketch -->
    <title>Shape</title>
    <defs></defs>
    <g id="Третья-проба-(material)" stroke="none" stroke-width="1" fill-rule="evenodd" sketch:type="MSPage">
        <g id="Карта-события" sketch:type="MSArtboardGroup" transform="translate(-17.000000, -119.000000)">
            <g id="Left-menu-2" sketch:type="MSLayerGroup" transform="translate(-9.000000, -1.000000)">
                <g id="Новые" transform="translate(26.000000, 120.000000)" sketch:type="MSShapeGroup">
                    <g id="clock40">
                        <g id="Layer_8">
                            <path d="M10.64028,0.12684 C4.84344,0.12684 0.12712,4.84316 0.12712,10.64 C0.12712,16.43684 4.84344,21.15316 10.64028,21.15316 C16.43712,21.15316 21.15344,16.43684 21.15344,10.64 C21.15344,4.84316 16.43712,0.12684 10.64028,0.12684 L10.64028,0.12684 Z M10.64028,19.4404 C5.78816,19.4404 1.84016,15.49212 1.84016,10.64 C1.84016,5.78788 5.78816,1.83988 10.64028,1.83988 C15.4924,1.83988 19.4404,5.78788 19.4404,10.64 C19.4404,15.49212 15.4924,19.4404 10.64028,19.4404 L10.64028,19.4404 Z M16.07088,7.93604 C16.24644,8.19056 16.1826,8.53916 15.92808,8.715 L10.85336,12.22088 C10.75816,12.28668 10.64672,12.32 10.535,12.32 C10.44596,12.32 10.35664,12.29872 10.27488,12.25588 C10.09064,12.15872 9.975,11.96804 9.975,11.76 L9.975,4.25628 C9.975,3.94716 10.22588,3.69628 10.535,3.69628 C10.84412,3.69628 11.095,3.94716 11.095,4.25628 L11.095,10.69236 L15.29164,7.79324 C15.54644,7.61824 15.8956,7.68208 16.07088,7.93604 L16.07088,7.93604 Z" id="Shape"></path>
                        </g>
                    </g>
                </g>
            </g>
        </g>
    </g>
</svg>