<?xml version="1.0" encoding="UTF-8" standalone="no"?>
<svg width="20px" height="20px" viewBox="0 0 20 20" version="1.1" xmlns="http://www.w3.org/2000/svg" xmlns:xlink="http://www.w3.org/1999/xlink" xmlns:sketch="http://www.bohemiancoding.com/sketch/ns">
    <!-- Generator: Sketch 3.0.4 (8054) - http://www.bohemiancoding.com/sketch -->
    <title>Group</title>
    <defs></defs>
    <g id="Третья-проба-(material)" stroke="none" stroke-width="1" sketch:type="MSPage">
        <g id="Карта-события" sketch:type="MSArtboardGroup" transform="translate(-17.000000, -160.000000)">
            <g id="Left-menu-2" sketch:type="MSLayerGroup" transform="translate(-9.000000, -1.000000)">
                <g id="Мои" transform="translate(26.000000, 160.000000)" sketch:type="MSShapeGroup">
                    <g id="stories-icon-2" transform="translate(0.000000, 1.000000)">
                        <g id="Group">
                            <path d="M4.375,6.5625 C3.5121875,6.5625 2.8125,7.2621875 2.8125,8.125 C2.8125,8.9878125 3.5121875,9.6875 4.375,9.6875 C5.2378125,9.6875 5.9375,8.9878125 5.9375,8.125 C5.9375,7.2621875 5.2378125,6.5625 4.375,6.5625 L4.375,6.5625 Z M4.375,9.0625 C3.85734375,9.0625 3.4375,8.64265625 3.4375,8.125 C3.4375,7.60734375 3.85734375,7.1875 4.375,7.1875 C4.89265625,7.1875 5.3125,7.60734375 5.3125,8.125 C5.3125,8.64265625 4.89265625,9.0625 4.375,9.0625 L4.375,9.0625 Z" id="Shape"></path>
                            <path d="M18.125,0 L1.875,0 C0.83953125,0 0,0.83953125 0,1.875 L0,18.125 C0,19.1604687 0.83953125,20 1.875,20 L18.125,20 C19.1604687,20 20,19.1604687 20,18.125 L20,1.875 C20,0.83953125 19.1604687,0 18.125,0 L18.125,0 Z M19.375,17.8125 C19.375,18.6753125 18.6753125,19.375 17.8125,19.375 L2.1875,19.375 C1.3246875,19.375 0.625,18.6753125 0.625,17.8125 L0.625,2.1875 C0.625,1.3246875 1.3246875,0.625 2.1875,0.625 L17.8125,0.625 C18.6753125,0.625 19.375,1.3246875 19.375,2.1875 L19.375,17.8125 L19.375,17.8125 Z" id="Shape"></path>
                            <path d="M16.5625,4.0625 L7.1875,4.0625 C7.015,4.0625 6.875,4.2025 6.875,4.375 C6.875,4.5475 7.015,4.6875 7.1875,4.6875 L16.5625,4.6875 C16.735,4.6875 16.875,4.5475 16.875,4.375 C16.875,4.2025 16.735,4.0625 16.5625,4.0625 L16.5625,4.0625 Z" id="Shape"></path>
                            <path d="M16.5625,7.8125 L7.1875,7.8125 C7.015,7.8125 6.875,7.9525 6.875,8.125 C6.875,8.2975 7.015,8.4375 7.1875,8.4375 L16.5625,8.4375 C16.735,8.4375 16.875,8.2975 16.875,8.125 C16.875,7.9525 16.735,7.8125 16.5625,7.8125 L16.5625,7.8125 Z" id="Shape"></path>
                            <path d="M16.5625,11.5625 L7.1875,11.5625 C7.015,11.5625 6.875,11.7025 6.875,11.875 C6.875,12.0475 7.015,12.1875 7.1875,12.1875 L16.5625,12.1875 C16.735,12.1875 16.875,12.0475 16.875,11.875 C16.875,11.7025 16.735,11.5625 16.5625,11.5625 L16.5625,11.5625 Z" id="Shape"></path>
                            <path d="M16.5625,15.3125 L7.1875,15.3125 C7.015,15.3125 6.875,15.4525 6.875,15.625 C6.875,15.7975 7.015,15.9375 7.1875,15.9375 L16.5625,15.9375 C16.735,15.9375 16.875,15.7975 16.875,15.625 C16.875,15.4525 16.735,15.3125 16.5625,15.3125 L16.5625,15.3125 Z" id="Shape"></path>
                            <circle id="Oval" cx="4.375" cy="11.875" r="0.625"></circle>
                            <circle id="Oval" cx="4.375" cy="4.375" r="0.625"></circle>
                            <circle id="Oval" cx="4.375" cy="15.625" r="0.625"></circle>
                        </g>
                    </g>
                </g>
            </g>
        </g>
    </g>
</svg>