<?xml version="1.0" encoding="UTF-8" standalone="no"?>
<svg width="20px" height="20px" viewBox="0 0 20 20" version="1.1" xmlns="http://www.w3.org/2000/svg" xmlns:xlink="http://www.w3.org/1999/xlink" xmlns:sketch="http://www.bohemiancoding.com/sketch/ns">
    <!-- Generator: Sketch 3.0.4 (8054) - http://www.bohemiancoding.com/sketch -->
    <title>Shape</title>
    <defs></defs>
    <g id="Третья-проба-(material)" stroke="none" stroke-width="1" sketch:type="MSPage">
        <g id="Карта-события" sketch:type="MSArtboardGroup" transform="translate(-17.000000, -328.000000)">
            <g id="Left-menu-2" sketch:type="MSLayerGroup" transform="translate(-9.000000, -1.000000)">
                <g id="Регистрация" transform="translate(26.000000, 328.000000)" sketch:type="MSShapeGroup">
                    <g id="account-circle" transform="translate(0.000000, 1.000000)">
                        <path d="M10,0 C4.5,0 0,4.5 0,10 C0,15.5 4.5,20 10,20 C15.5,20 20,15.5 20,10 C20,4.5 15.5,0 10,0 L10,0 Z M10.0890347,2.10779233 C12.0354866,2.10779233 13.5239498,3.62872098 13.5239498,5.61762767 C13.5239498,7.60653436 12.0354866,9.12746301 10.0890347,9.12746301 C8.14258286,9.12746301 6.65411965,7.60653436 6.65411965,5.61762767 C6.65411965,3.62872098 8.14258286,2.10779233 10.0890347,2.10779233 L10.0890347,2.10779233 Z M10.0890347,18.7210129 C7.2266055,18.7210129 4.70766777,17.2000843 3.21920456,14.9771886 C3.21920456,12.6372984 7.79909135,11.3503587 10.0890347,11.3503587 C12.3789781,11.3503587 16.9588649,12.6372984 16.9588649,14.9771886 C15.4704017,17.2000843 12.951464,18.7210129 10.0890347,18.7210129 L10.0890347,18.7210129 Z" id="Shape"></path>
                    </g>
                </g>
            </g>
        </g>
    </g>
</svg>